<svg width="10" height="14" fill="none" xmlns="http://www.w3.org/2000/svg"><g clip-path="url(#clip0_1_112)"><path d="M7.715 8.61l-4.45-4.45A.543.543 0 002.878 4a.543.543 0 00-.386.16l-.328.327a.548.548 0 000 .774L5.9 8.998l-3.74 3.741a.543.543 0 00-.16.387c0 .146.057.284.16.387l.327.327c.103.103.24.16.387.16a.543.543 0 00.387-.16l4.454-4.454a.544.544 0 00.16-.388.544.544 0 00-.16-.388z" fill="#FDFDFD"/></g><defs><clipPath id="clip0_1_112"><path fill="#fff" d="M0 0h9.875v14H0z"/></clipPath></defs></svg>