<svg width="137" height="72" fill="none" xmlns="http://www.w3.org/2000/svg"><path d="M4.96 61.508h3.142c.492 0 .742-.04.968-.133.532-.219.938-.688.938-1.344 0-.648-.39-1.125-.938-1.351-.226-.094-.468-.14-.976-.14H4.96v2.968zm0 6.492H3.095V56.797h5.234c.867 0 1.438.148 1.922.43.969.523 1.602 1.53 1.602 2.796 0 1.235-.633 2.258-1.61 2.79-.484.273-1.047.43-1.914.43H4.961V68zm13.91-11.203h2.086l3.047 5.742 2.953-5.742h2.086l-4.305 8.101c-.531 1-.875 1.594-1.375 2.118-.578.593-1.281 1.007-2.219 1.007a3.28 3.28 0 01-1.875-.601l.953-1.586c.282.203.61.312.946.312.656 0 1.054-.39 1.562-1.304.008-.031.258-.477.258-.477l-4.117-7.57zm17.76 0h1.007l4.851 5.836 4.844-5.836h1.016V68h-1.875v-7.648l-3.985 4.867-3.992-4.867V68h-1.867V56.797zm19.696-.008h9.469v1.75H61.99V68h-1.875v-9.46h-3.789v-1.75zM81.561 68v-7.82L74.78 68h-1.016V56.797h1.875v7.812c2.258-2.601 4.516-5.21 6.781-7.812h1.016V68H81.56zm19.212-3.328c0 1.312-.656 2.351-1.656 2.898-.492.274-1.078.43-1.953.43h-5.133V56.797h7.727v1.742h-5.86v2.813h3.266c.875 0 1.461.156 1.945.437 1.008.54 1.664 1.61 1.664 2.883zm-1.851 0c0-.703-.422-1.211-.984-1.453-.235-.094-.493-.14-.993-.14h-3.047v3.187h3.04c.515 0 .773-.047 1-.149.57-.234.984-.75.984-1.445zm9.931-7.875h7.649v1.734h-5.774v2.461h4.477v1.719h-4.477v3.555h5.774V68h-7.649V56.797zm15.244-.008h9.469v1.75h-3.805V68h-1.875v-9.46h-3.789v-1.75z" fill="#fff"/><mask id="a" style="mask-type:luminance" maskUnits="userSpaceOnUse" x="0" y="0" width="137" height="48"><path d="M137 0H0v48h137V0z" fill="#fff"/></mask><g mask="url(#a)"><path d="M.153 27.914c.245-.058 24.662-5.88 43.047-14.033 2.045-.907 3.7-1.445 5.096-1.698-1.563 1.574-10.756 5.5-3.414 6.195 6.737.64-4.36 8.633-9.448 11.539-13.38 4.243-22.065 5.909-22.221 5.938l.184.982c.045-.009.823-.158 2.23-.47 7.377-1.632 32.138-7.745 60.545-21.715 3.984-1.96 7.235-3.046 9.972-3.45-.803 4.117-10.09 13.218 4.743 15.516 13.529 2.096-13.602 7.418-23.714 10.128-1.459.39-2.563.727-3.14.992-4.465 2.047 47.434.206 70.643.112.757.027 1.53.042 2.324.042v-.999c-20.73 0-28.072-9.48-33.972-17.096-6.13-7.916-10.973-14.17-27.296-6.142a282.248 282.248 0 01-11.5 5.335c-3.423-1.218-5.496-2.97-7.312-4.507-3.382-2.864-5.825-4.933-13.99-1.31C24.603 21.4.244 27.209 0 27.266l.153.648z" fill="#FDFDFD"/></g></svg>