<svg width="50" height="50" viewBox="0 0 50 50" fill="none" xmlns="http://www.w3.org/2000/svg">
<rect width="50" height="50" rx="4" fill="#E3E6EE"/>
<path d="M38.0355 14.0611C37.9661 13.7483 37.848 13.4484 37.6856 13.1723C37.6856 13.1723 33.7829 7 23.6311 7C13.4824 7 9.57668 13.1723 9.57668 13.1723C9.43295 13.3988 9.27567 13.7984 9.226 14.0611C9.226 14.0611 8.4712 18.0638 9.72042 23.8012C10.8711 29.0758 14.0513 36.6365 22.6859 42.6997C22.9628 42.8948 23.2932 42.9996 23.6319 42.9996C23.9706 42.9996 24.301 42.8948 24.5778 42.6997C33.2094 36.6358 36.3912 29.0758 37.5411 23.8012C38.794 18.0638 38.0355 14.0611 38.0355 14.0611ZM34.2141 23.0758C34.1817 23.227 34.1418 23.385 34.1042 23.5401H23.6311V39.1741C16.8944 34.0613 14.2108 27.9793 13.1573 23.5401H23.6311V10.4052C30.8593 10.4052 34.0779 14.0445 34.716 14.8738C34.8214 15.6384 35.1495 18.79 34.2141 23.0758Z" fill="#6276AA"/>
</svg>
