<svg width="50" height="50" fill="none" xmlns="http://www.w3.org/2000/svg"><rect width="50" height="50" rx="4" fill="#E3E6EE"/><path d="M38.035 14.061a3.06 3.06 0 00-.35-.889S33.784 7 23.632 7c-10.15 0-14.055 6.172-14.055 6.172a3.038 3.038 0 00-.351.89s-.755 4.002.494 9.74c1.151 5.274 4.331 12.834 12.966 18.898a1.642 1.642 0 001.892 0c8.631-6.064 11.812-13.624 12.962-18.9 1.253-5.737.495-9.74.495-9.74zm-3.82 9.015c-.033.151-.073.309-.11.464H23.63v15.634c-6.737-5.113-9.42-11.195-10.474-15.634H23.63V10.405c7.228 0 10.447 3.64 11.085 4.469.105.764.434 3.916-.502 8.202z" fill="#6276AA"/></svg>